<svg width="22" height="8" viewBox="0 0 22 8" fill="none" xmlns="http://www.w3.org/2000/svg">
<g clip-path="url(#clip0_5_3406)">
<path d="M2.7665 1.859C1.2375 1.859 0 3.0965 0 4.6255C0 6.1545 1.2375 7.392 2.7665 7.392C4.2955 7.392 5.533 6.1545 5.533 4.6255C5.533 3.0965 4.2955 1.859 2.7665 1.859ZM2.7665 6.0115C2.002 6.0115 1.3805 5.39 1.3805 4.6255C1.3805 3.861 2.002 3.2395 2.7665 3.2395C3.531 3.2395 4.1525 3.861 4.1525 4.6255C4.1525 5.39 3.531 6.0115 2.7665 6.0115Z" fill="#007DC1"/>
<path d="M7.6285 5.555C7.6285 5.335 7.8925 5.2305 8.0465 5.3845C8.7395 6.0885 9.8835 7.2985 9.889 7.304C9.9055 7.3205 9.922 7.348 9.988 7.37C10.0155 7.381 10.0595 7.381 10.109 7.381H11.3575C11.583 7.381 11.649 7.1225 11.5445 6.9905L9.4765 4.873L9.3665 4.763C9.13 4.4825 9.1575 4.3725 9.427 4.0865L11.066 2.255C11.1705 2.123 11.1045 1.87 10.8735 1.87H9.7405C9.6965 1.87 9.6635 1.87 9.6305 1.881C9.5645 1.903 9.537 1.925 9.5205 1.947C9.515 1.9525 8.6075 2.9315 8.0465 3.531C7.8925 3.696 7.6175 3.586 7.6175 3.3605V0.22C7.6175 0.0605 7.4855 0 7.381 0H6.457C6.2975 0 6.2205 0.1045 6.2205 0.198V7.161C6.2205 7.3205 6.3525 7.3645 6.4625 7.3645H7.3865C7.5295 7.3645 7.623 7.26 7.623 7.1555V7.084V5.555H7.6285Z" fill="#007DC1"/>
<path d="M15.1745 7.128L15.0755 6.204C15.0645 6.0775 14.9435 5.9895 14.817 6.0115C14.7455 6.0225 14.674 6.028 14.6025 6.028C13.8655 6.028 13.266 5.4505 13.222 4.719C13.222 4.697 13.222 4.6695 13.222 4.642V3.509C13.222 3.3605 13.332 3.2395 13.4805 3.2395H14.718C14.806 3.2395 14.938 3.1625 14.938 3.003V2.1285C14.938 1.958 14.828 1.87 14.729 1.87H13.4805C13.3375 1.87 13.222 1.7655 13.2165 1.6225V0.22C13.2165 0.132 13.1505 0 12.98 0H12.0615C11.946 0 11.836 0.0715 11.836 0.2145C11.836 0.2145 11.836 4.697 11.836 4.719C11.8745 6.215 13.101 7.4085 14.6025 7.4085C14.729 7.4085 14.85 7.3975 14.971 7.381C15.103 7.3645 15.191 7.2545 15.1745 7.128Z" fill="#007DC1"/>
<path d="M21.8405 5.9675C21.0595 5.9675 20.9385 5.687 20.9385 4.6365C20.9385 4.631 20.9385 4.631 20.9385 4.6255V2.101C20.9385 2.013 20.8725 1.8645 20.6965 1.8645H19.7725C19.657 1.8645 19.5305 1.958 19.5305 2.101V2.2165C19.129 1.9855 18.6615 1.8535 18.1665 1.8535C16.6375 1.8535 15.4 3.091 15.4 4.62C15.4 6.149 16.6375 7.3865 18.1665 7.3865C18.854 7.3865 19.481 7.1335 19.965 6.721C20.2235 7.117 20.6415 7.381 21.296 7.3865C21.406 7.3865 22 7.4085 22 7.128V6.1435C22 6.061 21.934 5.9675 21.8405 5.9675ZM18.172 6.0115C17.4075 6.0115 16.786 5.39 16.786 4.6255C16.786 3.861 17.4075 3.2395 18.172 3.2395C18.9365 3.2395 19.558 3.861 19.558 4.6255C19.5525 5.39 18.931 6.0115 18.172 6.0115Z" fill="#007DC1"/>
</g>
<defs>
<clipPath id="clip0_5_3406">
<rect width="22" height="7.4085" fill="white"/>
</clipPath>
</defs>
</svg>
